<svg height="450pt" viewBox="0 0 450 450" width="450pt" xmlns="http://www.w3.org/2000/svg"><path d="m259.28125 259.121094h180.589844v180.589844h-180.589844zm0 0" fill="#d18162"/><path d="m259.28125 10.289062h180.589844v180.589844h-180.589844zm0 0" fill="#e2d574"/><path d="m10.449219 259.121094h180.589843v180.589844h-180.589843zm0 0" fill="#e2d574"/><path d="m10.449219 10.289062h180.589843v180.589844h-180.589843zm0 0" fill="#d18162"/><g fill="#63316d"><path d="m201 10c0-5.523438-4.476562-10-10-10h-181c-5.523438 0-10 4.476562-10 10v181c0 5.523438 4.476562 10 10 10h181c5.523438 0 10-4.476562 10-10zm-20 171h-161v-161h161zm0 0"/><path d="m450 10c0-5.523438-4.476562-10-10-10h-181c-5.523438 0-10 4.476562-10 10v181c0 5.523438 4.476562 10 10 10h181c5.523438 0 10-4.476562 10-10zm-20 171h-161v-161h161zm0 0"/><path d="m201 259c0-5.523438-4.476562-10-10-10h-181c-5.523438 0-10 4.476562-10 10v181c0 5.523438 4.476562 10 10 10h181c5.523438 0 10-4.476562 10-10zm-20 171h-161v-161h161zm0 0"/><path d="m450 259c0-5.523438-4.476562-10-10-10h-181c-5.523438 0-10 4.476562-10 10v181c0 5.523438 4.476562 10 10 10h181c5.523438 0 10-4.476562 10-10zm-20 171h-161v-161h161zm0 0"/></g></svg>